<!-- Generator: Adobe Illustrator 21.0.2, SVG Export Plug-In  -->
<svg version="1.1"
	 xmlns="http://www.w3.org/2000/svg" xmlns:xlink="http://www.w3.org/1999/xlink" xmlns:a="http://ns.adobe.com/AdobeSVGViewerExtensions/3.0/"
	 x="0px" y="0px" width="140.5px" height="141.5px" viewBox="0 0 140.5 141.5" style="enable-background:new 0 0 140.5 141.5;"
	 xml:space="preserve">
<style type="text/css">
	.st0{clip-path:url(#SVGID_2_);fill:#B7B7B7;}
	.st1{clip-path:url(#SVGID_4_);fill:#B7B7B7;}
</style>
<defs>
</defs>
<g>
	<defs>
		<rect id="SVGID_1_" width="140.5" height="141.5"/>
	</defs>
	<clipPath id="SVGID_2_">
		<use xlink:href="#SVGID_1_"  style="overflow:visible;"/>
	</clipPath>
	<path class="st0" d="M114.1,77.6c10.8,25-15.9,30.4-15.9,30.4s-41.9,5.7-41.9,33.1c52.7,0,84.2-17.9,84.2-39.2
		C140.5,80.6,114.1,77.6,114.1,77.6"/>
	<path class="st0" d="M69.8,102.9c33.1-5.4,30.4-17.6,27.7-24.3c0,0-3.5,0-9.1,0.3V65.2c2.3,0.8,4.7,1.2,7.2,1.2
		c12.3,0,22.2-10,22.2-22.2c0-9.2-5.6-17.1-13.6-20.5c0-0.5,0.1-1,0.1-1.5C104.3,10,94.4,0,82.1,0S59.9,10,59.9,22.2
		c0,0.3,0,0.6,0,0.8C51,26,44.6,34.3,44.6,44.2c0,12.3,10,22.2,22.2,22.2c2.9,0,5.7-0.6,8.2-1.6v15.1c-12.2,1.3-27.3,3.7-39.8,8.5
		V74.5c1.8,0.6,3.8,1,5.8,1c5.2,0,9.8-2.2,13-5.7c-8.8-4.1-15.1-13.9-15.1-25.4c0-6.1,1.8-11.7,4.7-16.2c-3.3-3.8-8.2-6.3-13.6-6.3
		c-9.9,0-17.9,8-17.9,17.9c0,0.2,0,0.5,0,0.7C5.2,42.9,0,49.7,0,57.6c0,9.9,8,17.9,17.9,17.9c2.4,0,4.6-0.5,6.7-1.3v19.3
		c-8.1,5-13.6,11.7-13.6,20.6c0,26.4,22.3,27.4,22.3,27.4S31.3,109.2,69.8,102.9"/>
</g>
</svg>