<!-- Generator: Adobe Illustrator 21.0.2, SVG Export Plug-In  -->
<svg version="1.1"
	 xmlns="http://www.w3.org/2000/svg" xmlns:xlink="http://www.w3.org/1999/xlink" xmlns:a="http://ns.adobe.com/AdobeSVGViewerExtensions/3.0/"
	 x="0px" y="0px" width="129.7px" height="92.3px" viewBox="0 0 129.7 92.3" style="enable-background:new 0 0 129.7 92.3;"
	 xml:space="preserve">
<style type="text/css">
	.st0{fill:#B7B7B7;}
	.st1{clip-path:url(#SVGID_2_);fill:#B7B7B7;}
	.st2{clip-path:url(#SVGID_4_);fill:#B7B7B7;}
</style>
<defs>
</defs>
<polygon class="st0" points="0,0 0,92.3 11.7,92.3 11.7,78.8 119,78.8 119,92.3 129.7,92.3 129.7,56.6 119,56.6 11.7,56.6 11.7,0 
	"/>
<g>
	<defs>
		<rect id="SVGID_1_" y="0" width="129.7" height="92.3"/>
	</defs>
	<clipPath id="SVGID_2_">
		<use xlink:href="#SVGID_1_"  style="overflow:visible;"/>
	</clipPath>
	<path class="st1" d="M129.7,50.7c-0.1-15-12.4-27.3-27.5-27.3H50.3v27.3H129.7z"/>
	<path class="st1" d="M45.7,36.5c0,8-6.5,14.5-14.5,14.5c-8,0-14.5-6.5-14.5-14.5S23.2,22,31.2,22C39.2,22,45.7,28.5,45.7,36.5"/>
</g>
</svg>