<!-- Generator: Adobe Illustrator 21.0.2, SVG Export Plug-In  -->
<svg version="1.1"
	 xmlns="http://www.w3.org/2000/svg" xmlns:xlink="http://www.w3.org/1999/xlink" xmlns:a="http://ns.adobe.com/AdobeSVGViewerExtensions/3.0/"
	 x="0px" y="0px" width="157.9px" height="60px" viewBox="0 0 157.9 60" style="enable-background:new 0 0 157.9 60;"
	 xml:space="preserve">
<style type="text/css">
	.st0{fill:#B7B7B7;}
	.st1{clip-path:url(#SVGID_2_);fill:#B7B7B7;}
	.st2{clip-path:url(#SVGID_4_);fill:#B7B7B7;}
</style>
<defs>
</defs>
<polygon class="st0" points="71.3,14.8 71.3,42.2 94.9,42.2 94.9,31.8 103.6,31.8 103.6,42.2 115.9,42.2 115.9,31.8 134.6,31.8 
	134.6,42.2 147.9,42.2 157.9,14.8 "/>
<g>
	<defs>
		<rect id="SVGID_1_" x="0" width="157.9" height="60"/>
	</defs>
	<clipPath id="SVGID_2_">
		<use xlink:href="#SVGID_1_"  style="overflow:visible;"/>
	</clipPath>
	<path class="st1" d="M56.8,0.2h-22c-1-0.1-2-0.2-3.1-0.2C16,0,3.3,12.8,3.3,28.5c0,6.4,2.1,12.2,5.6,17l-7.7,7.7
		c-1.6,1.6-1.6,4.1,0,5.7s4.1,1.6,5.7,0l24.5-24.5c1.6-1.6,1.6-4.1,0-5.7c-1.6-1.6-4.1-1.6-5.7,0l-3.4,3.4c-0.4-1.1-0.7-2.3-0.7-3.6
		c0-5.5,4.5-10,10-10s10,4.5,10,10c0,4.9-3.6,9-8.3,9.8L18.1,53.5c4,2.2,8.7,3.5,13.6,3.5c1,0,2.1-0.1,3.1-0.2h22
		c5,0,9.1-4.1,9.1-9.1V9.3C65.9,4.3,61.8,0.2,56.8,0.2"/>
</g>
</svg>