<!-- Generator: Adobe Illustrator 21.0.2, SVG Export Plug-In  -->
<svg version="1.1"
	 xmlns="http://www.w3.org/2000/svg" xmlns:xlink="http://www.w3.org/1999/xlink" xmlns:a="http://ns.adobe.com/AdobeSVGViewerExtensions/3.0/"
	 x="0px" y="0px" width="416px" height="512px" viewBox="0 0 416 512" style="enable-background:new 0 0 416 512;"
	 xml:space="preserve">
<style type="text/css">
	.st0{fill:#FFFFFF;}
</style>
<defs>
</defs>
<g>
	<g>
		<path class="st0" d="M400,0H144c-8.8,0-16,7.2-16,16v160h32V32h224v448H160V336h-32v160c0,8.8,7.2,16,16,16h256
			c8.8,0,16-7.2,16-16V16C416,7.2,408.8,0,400,0z"/>
	</g>
</g>
<g>
	<g>
		<path class="st0" d="M315.3,244.7l-96-96l-22.6,22.6l68.7,68.7H0v32h265.4l-68.7,68.7l22.6,22.6l96-96
			C321.6,261.1,321.6,250.9,315.3,244.7z"/>
	</g>
</g>
</svg>